<svg xmlns="http://www.w3.org/2000/svg" viewBox="0 0 900 600">
<rect width="900" height="600" fill="#171819"/>
<path d="M0 430C160 380 255 470 390 430s260-62 510-10v180H0z" fill="#5e4434"/>
<path d="M0 480C160 430 280 530 430 475s250-44 470 0" fill="none" stroke="#9b7054" stroke-width="18"/>
<g transform="translate(105 160)" stroke-linejoin="round">
<rect x="95" y="220" width="270" height="70" rx="35" fill="#202121" stroke="#807c78" stroke-width="11"/>
<path d="M155 220l24-104h104l49 104z" fill="#ef6719" stroke="#87320f" stroke-width="9"/>
<path d="M205 116V35h92l42 81" fill="#273036" stroke="#eee8df" stroke-width="9"/>
<path d="M334 139L485 55l118-28" fill="none" stroke="#e85e14" stroke-width="24"/>
<path d="M484 57l76 121M603 28l44 149 73 6-22 56-86-8" fill="none" stroke="#c94911" stroke-width="20"/>
</g></svg>